<svg width="33" height="34" viewBox="0 0 33 34" fill="none" xmlns="http://www.w3.org/2000/svg">
<path d="M11.9326 15.617C14.4535 15.617 16.497 13.5734 16.497 11.0525C16.497 8.53166 14.4535 6.48809 11.9326 6.48809C9.41173 6.48809 7.36816 8.53166 7.36816 11.0525C7.36816 13.5734 9.41173 15.617 11.9326 15.617Z" fill="#ADEC76"/>
<path d="M19.6732 26.9358C23.0222 26.9358 25.7371 24.221 25.7371 20.872C25.7371 17.523 23.0222 14.8082 19.6732 14.8082C16.3242 14.8082 13.6094 17.523 13.6094 20.872C13.6094 24.221 16.3242 26.9358 19.6732 26.9358Z" fill="#ADEC76"/>
<path d="M28.5004 20.4475L32.1573 21.6213C31.0323 25.1263 28.8535 28.1139 25.8573 30.2614C22.8616 32.4083 19.3478 33.5002 15.7021 33.419C8.52075 33.2596 2.21066 28.5176 0 21.62L3.65755 20.4481C5.3682 25.7863 10.2433 29.4558 15.7877 29.5795C21.5091 29.707 26.7335 25.9513 28.501 20.4475H28.5004Z" fill="#ADEC76"/>
<path d="M3.65693 12.9757L0 11.8019C1.12502 8.29684 3.3038 5.3093 6.30009 3.16177C9.29576 1.01487 12.8096 -0.0770257 16.4552 0.00422548C23.6366 0.163603 29.9467 4.90555 32.1573 11.8031L28.4998 12.975C26.7891 7.63684 21.9141 3.96741 16.3696 3.84366C10.6483 3.71615 5.42383 7.47183 3.6563 12.9757H3.65693Z" fill="#ADEC76"/>
</svg>
