<svg width="228" height="34" viewBox="0 0 228 34" fill="none" xmlns="http://www.w3.org/2000/svg">
<g clip-path="url(#clip0_198_3725)">
<path d="M11.9326 15.617C14.4535 15.617 16.497 13.5734 16.497 11.0525C16.497 8.53166 14.4535 6.48809 11.9326 6.48809C9.41173 6.48809 7.36816 8.53166 7.36816 11.0525C7.36816 13.5734 9.41173 15.617 11.9326 15.617Z" fill="#ADEC76"/>
<path d="M19.6732 26.9358C23.0222 26.9358 25.7371 24.221 25.7371 20.872C25.7371 17.523 23.0222 14.8082 19.6732 14.8082C16.3242 14.8082 13.6094 17.523 13.6094 20.872C13.6094 24.221 16.3242 26.9358 19.6732 26.9358Z" fill="#ADEC76"/>
<path d="M28.5004 20.4475L32.1573 21.6213C31.0323 25.1263 28.8535 28.1139 25.8573 30.2614C22.8616 32.4083 19.3478 33.5002 15.7021 33.419C8.52075 33.2596 2.21066 28.5176 0 21.62L3.65755 20.4481C5.3682 25.7863 10.2433 29.4558 15.7877 29.5795C21.5091 29.707 26.7335 25.9513 28.501 20.4475H28.5004Z" fill="#ADEC76"/>
<path d="M3.65693 12.9757L0 11.8019C1.12502 8.29684 3.3038 5.3093 6.30009 3.16177C9.29576 1.01487 12.8096 -0.0770257 16.4552 0.00422548C23.6366 0.163603 29.9467 4.90555 32.1573 11.8031L28.4998 12.975C26.7891 7.63684 21.9141 3.96741 16.3696 3.84366C10.6483 3.71615 5.42383 7.47183 3.6563 12.9757H3.65693Z" fill="#ADEC76"/>
<path d="M64.9962 28.759H57.8846L50.9746 19.5221C50.7602 19.2351 50.337 19.2169 50.0972 19.4821L48.8111 20.9135C48.7166 21.017 48.6658 21.1533 48.6658 21.2932V28.759H43.0564V4.10354H48.6658V14.0362C48.6658 14.5594 49.3143 14.8046 49.6594 14.4122L58.7419 4.10536H65.4231L54.9618 15.4676C54.7711 15.6747 54.7602 15.989 54.9364 16.2069L64.9944 28.7608H64.9962V28.759Z" fill="#121212"/>
<path d="M83.2885 21.1588C82.1423 26.9789 77.6683 30.2849 71.4976 29.0697C65.2924 27.8472 62.4405 23.097 63.5849 17.2787C64.7311 11.4586 69.1634 8.17983 75.3704 9.40234C81.541 10.6176 84.4347 15.3387 83.2885 21.1588ZM77.6083 20.0416C78.3749 16.1507 77.2178 13.7002 74.6238 13.1898C71.9935 12.6721 69.9953 14.4995 69.2288 18.3922C68.4622 22.2832 69.612 24.7682 72.2423 25.2859C74.8363 25.7963 76.8417 23.9344 77.6083 20.0416Z" fill="#121212"/>
<path d="M115.23 17.504V28.7591H109.62V18.9318C109.62 18.0381 109.584 17.0027 109.477 16.0381C109.262 14.1435 108.262 13.0718 106.476 13.0718C104.332 13.0718 103.261 14.9664 103.261 18.861V28.7591H97.6859V18.9318C97.6859 18.0381 97.6496 17.0027 97.5424 16.0381C97.2917 14.1435 96.3271 13.0718 94.5052 13.0718C92.3617 13.0718 91.3245 14.9664 91.3245 18.861V28.7591H85.7151V9.71304H91.3245V11.1444C91.3245 11.5786 91.8949 11.7366 92.1201 11.3661C92.6651 10.4669 93.5188 9.7857 94.5324 9.49869C95.21 9.30614 95.9675 9.21168 96.8648 9.21168C99.7131 9.21168 101.586 10.4723 102.512 12.2507C102.658 12.5304 103.045 12.5631 103.233 12.3106L104.174 11.0554C104.638 10.4378 105.252 9.94374 105.973 9.66945C106.779 9.36246 107.693 9.2135 108.799 9.2135C112.516 9.2135 114.623 11.357 115.052 13.9655C115.195 14.93 115.23 15.9673 115.23 17.504Z" fill="#121212"/>
<path d="M146.668 17.504V28.7591H141.059V18.9318C141.059 18.0381 141.022 17.0027 140.915 16.0381C140.701 14.1435 139.7 13.0718 137.914 13.0718C135.771 13.0718 134.699 14.9664 134.699 18.861V28.7591H129.124V18.9318C129.124 18.0381 129.088 17.0027 128.981 16.0381C128.73 14.1435 127.765 13.0718 125.943 13.0718C123.8 13.0718 122.763 14.9664 122.763 18.861V28.7591H117.153V9.71304H122.763V11.1444C122.763 11.5786 123.333 11.7366 123.558 11.3661C124.105 10.4633 124.966 9.78025 125.982 9.49506C126.657 9.30432 127.409 9.21168 128.301 9.21168C131.15 9.21168 133.022 10.4723 133.947 12.2507C134.092 12.5304 134.479 12.5631 134.668 12.3106L135.609 11.0572C136.085 10.4233 136.723 9.92194 137.466 9.64765C138.258 9.35519 139.155 9.2135 140.234 9.2135C143.95 9.2135 146.058 11.357 146.488 13.9655C146.632 14.93 146.666 15.9673 146.666 17.504H146.668Z" fill="#121212"/>
<path d="M167.049 28.7592H161.474V26.9844C161.474 26.5558 160.913 26.3923 160.684 26.7556C159.921 27.9599 158.708 28.8264 157.307 29.097C156.731 29.2079 156.115 29.2605 155.436 29.2605C151.505 29.2605 149.147 27.0444 148.719 24.4359C148.575 23.4713 148.541 22.4341 148.541 20.8991V9.7149H154.115V19.6839C154.115 20.2906 154.152 21.3278 154.259 22.2924C154.51 24.2215 155.51 25.3659 157.688 25.3659C159.975 25.3659 161.476 23.4005 161.476 19.8982V9.7149H167.051V28.761H167.049V28.7592Z" fill="#121212"/>
<path d="M186.952 18.0036V28.7591H181.343V18.8609C181.343 18.1471 181.343 17.1825 181.272 16.2161C181.129 14.287 180.057 13.0717 177.877 13.0717C175.697 13.0717 174.019 15.0735 174.019 19.9327V28.7591H168.409V9.71301H174.019V10.7847C174.019 11.3733 174.778 11.6094 175.112 11.1244C175.477 10.594 175.97 10.1562 176.555 9.88558C177.568 9.41692 178.673 9.21347 180.022 9.21347C184.024 9.21347 186.347 11.1426 186.776 14.4668C186.92 15.4314 186.954 16.4686 186.954 18.0036H186.952Z" fill="#121212"/>
<path d="M206.788 18.0036V28.7591H201.178V18.8609C201.178 18.1471 201.178 17.1825 201.107 16.2161C200.964 14.287 199.892 13.0717 197.712 13.0717C195.532 13.0717 193.854 15.0735 193.854 19.9327V28.7591H188.245V9.71301H193.854V10.7847C193.854 11.3733 194.613 11.6094 194.948 11.1244C195.313 10.594 195.805 10.1562 196.39 9.88558C197.403 9.41692 198.508 9.21347 199.858 9.21347C203.859 9.21347 206.183 11.1426 206.611 14.4668C206.755 15.4314 206.789 16.4686 206.789 18.0036H206.788Z" fill="#121212"/>
<path d="M227.063 18.9354L213.924 21.3768C214.907 24.9008 216.649 25.6673 218.722 25.2822C220.654 24.9226 221.757 23.6274 221.748 21.8127L227.194 20.8009C226.978 25.3113 223.89 28.2486 219.323 29.0969C214.088 30.0706 209.383 27.6364 208.157 21.0316C207.112 15.4113 210.075 10.4268 216.011 9.32239C221.984 8.21251 225.917 12.1707 226.845 17.1588C226.936 17.6511 227.012 18.2542 227.067 18.9354H227.063ZM213.417 17.8745L220.796 16.5031C219.989 13.9272 218.505 12.7847 216.467 13.1643C214.5 13.5294 213.359 15.0135 213.417 17.8745Z" fill="#121212"/>
</g>
<defs>
<clipPath id="clip0_198_3725">
<rect width="227.194" height="33.4233" fill="white"/>
</clipPath>
</defs>
</svg>
